:SAMPLES-PER-SECOND 30
:FULLY-SPECIFIED
:DEGREES
578
root  -7.61582 40.093 -3.68373 -6.99855 -78.724 7.12332
RightUpLeg  -18.033 -10.6838 -9.09074
RightLeg  27.062 1.99209 0.869996
RightFoot  -3.33108 -0.615601 8.44211
RightToes  0.00048216 0.542163 -0.142577
Spine  13.6645 1.50062 -0.108222
Spine1  -1.45821 2.05492 -3.23298
HEad  -2.6983 15.1367 -3.55064
LeftShoulder1  4.66326 -8.42704 -33.0171
LeftArm  -17.6546 16.7119 -12.2845
LeftForeArm  24.0401 -20.4959 -3.25578
LeftHand  -0.25398 0.0180481 5.50724
RightShoulder  3.29787 6.1742 28.0646
RightArm  -20.0013 -18.0194 24.3759
RightForeArm  -1.49973 7.8629 3.6974
RightHand  -1.78177 4.45765 -21.1255
LeftUpLeg  -1.37005 8.59429 4.09661
LeftLeg  15.1919 4.93355 0.427266
LeftFoot  -12.1244 0.0323792 -5.89971
LeftToes  1.06244e-005 4.65854e-005 -8.18505e-006
579
root  -7.25093 40.2391 -3.36457 -7.91801 -80.7594 8.29552
RightUpLeg  -16.3955 -12.3539 -7.63048
RightLeg  29.5879 0.652593 0.157997
RightFoot  -3.86356 -0.5966 8.69927
RightToes  0.00048216 0.542163 -0.142577
Spine  12.5967 1.51151 -0.701974
Spine1  -2.18311 1.91357 -2.90122
HEad  -2.40634 12.3119 -3.01706
LeftShoulder1  3.75239 -7.00884 -29.5821
LeftArm  -17.7101 17.7 -10.5219
LeftForeArm  22.7432 -19.0047 -3.06133
LeftHand  -0.25398 0.0180481 5.50724
RightShoulder  2.95568 5.68905 26.0701
RightArm  -20.5976 -17.9873 22.4696
RightForeArm  -1.94549 6.99503 3.31336
RightHand  -1.70283 4.22894 -20.6791
LeftUpLeg  -0.882896 8.43328 3.80373
LeftLeg  13.4118 7.22708 -0.302005
LeftFoot  -11.206 0.0728344 -5.21306
LeftToes  1.06244e-005 4.65854e-005 -8.18505e-006
580
root  -6.9563 40.3537 -3.09039 -8.37093 -81.9974 9.04349
RightUpLeg  -13.5791 -14.1978 -6.5824
RightLeg  30.2995 -2.87216 -2.03603
RightFoot  -4.9082 -0.51827 8.62982
RightToes  0.00048216 0.542163 -0.142577
Spine  11.1745 1.25163 -1.22303
Spine1  -2.44738 1.50359 -2.32012
HEad  -2.43754 8.94659 -2.31656
LeftShoulder1  2.87468 -5.57196 -25.4448
LeftArm  -17.6281 18.3043 -9.48674
LeftForeArm  21.1023 -16.408 -2.71392
LeftHand  -0.25398 0.0180481 5.50724
RightShoulder  2.53075 4.95238 23.7383
RightArm  -20.5278 -17.3299 20.0562
RightForeArm  -2.66122 6.75073 3.27546
RightHand  -1.65227 4.16828 -20.211
LeftUpLeg  -0.696742 7.8052 3.43297
LeftLeg  11.9143 9.25957 -0.855216
LeftFoot  -10.3811 0.0979468 -4.23457
LeftToes  1.06244e-005 4.65854e-005 -8.18505e-006
581
root  -6.73041 40.4268 -2.85822 -11.2938 -83.1234 12.3141
RightUpLeg  -9.93928 -15.2832 -6.19545
RightLeg  28.7674 -5.87697 -3.70656
RightFoot  -6.49198 -0.432229 9.16678
RightToes  0.00048216 0.542163 -0.142577
Spine  9.61784 1.14013 -1.83224
Spine1  -2.75141 1.27458 -1.77356
HEad  -2.30585 5.20732 -1.64041
LeftShoulder1  2.21098 -4.43223 -21.4385
LeftArm  -17.543 18.8186 -8.55884
LeftForeArm  19.2352 -13.8296 -2.34799
LeftHand  -0.25398 0.0180481 5.50724
RightShoulder  2.09105 4.10562 21.1443
RightArm  -19.9191 -16.177 17.1404
RightForeArm  -2.65104 6.41978 3.3179
RightHand  -1.71632 4.49048 -20.3117
LeftUpLeg  -0.503642 7.06286 2.86817
LeftLeg  10.5013 11.2696 -1.45547
LeftFoot  -9.80978 0.108886 -3.72453
LeftToes  1.06244e-005 4.65854e-005 -8.18505e-006
582
root  -6.56513 40.4776 -2.65553 -19.413 -84.5202 20.8404
RightUpLeg  -6.22119 -15.2051 -6.27845
RightLeg  24.5974 -6.77194 -3.65233
RightFoot  -8.74344 -0.258343 8.52196
RightToes  0.00048216 0.542163 -0.142577
Spine  8.04257 1.35011 -2.20343
Spine1  -3.24636 1.47279 -1.60679
HEad  -1.87823 1.46126 -1.16786
LeftShoulder1  1.75771 -3.59835 -18.0851
LeftArm  -17.6363 19.2123 -7.3419
LeftForeArm  17.1976 -12.1484 -2.01864
LeftHand  -0.25398 0.0180481 5.50724
RightShoulder  1.70046 3.31444 18.4176
RightArm  -19.3337 -14.8618 13.9994
RightForeArm  -2.68133 6.01116 3.34531
RightHand  -1.84964 4.9534 -20.9025
LeftUpLeg  -0.0967544 6.25742 2.15147
LeftLeg  8.83364 13.6007 -2.27405
LeftFoot  -9.34825 0.11803 -3.5629
LeftToes  1.06244e-005 4.65854e-005 -8.18505e-006
583
root  -6.43014 40.5422 -2.45937 -33.8519 -85.9602 35.6243
RightUpLeg  -3.02177 -14.8251 -6.67221
RightLeg  18.6149 -6.22688 -2.29967
RightFoot  -10.7507 -0.101628 5.66365
RightToes  0.00048216 0.542163 -0.142577
Spine  6.59605 1.65284 -1.65013
Spine1  -3.594 1.94192 -2.17178
HEad  -1.5657 -1.84624 -0.894463
LeftShoulder1  1.36743 -2.71574 -15.0501
LeftArm  -18.4116 19.3111 -6.34087
LeftForeArm  15.1314 -11.5379 -1.6581
LeftHand  -0.25398 0.0180481 5.50724
RightShoulder  1.36885 2.61223 15.6341
RightArm  -19.1772 -13.3422 11.2244
RightForeArm  -3.78226 5.61615 3.38978
RightHand  -1.9595 5.25532 -21.5015
LeftUpLeg  0.52919 5.47764 1.40313
LeftLeg  6.82222 16.1218 -3.07643
LeftFoot  -8.73439 0.123608 -3.13915
LeftToes  1.06244e-005 4.65854e-005 -8.18505e-006
584
root  -6.28637 40.6331 -2.25418 -52.8139 -87.0544 54.7883
RightUpLeg  -0.560576 -13.1674 -7.52367
RightLeg  12.7741 -7.08181 0.0245884
RightFoot  -10.9792 -0.0792707 2.67278
RightToes  0.00048216 0.542163 -0.142577
Spine  5.52277 1.77188 0.0247841
Spine1  -3.68676 2.34804 -3.38896
HEad  -1.67889 -4.43697 -0.80212
LeftShoulder1  0.992199 -1.63977 -12.0771
LeftArm  -20.2155 19.2224 -6.02916
LeftForeArm  13.624 -11.7658 -1.17654
LeftHand  -0.25398 0.0180481 5.50724
RightShoulder  1.08707 1.96447 12.8859
RightArm  -19.3649 -11.495 9.07091
RightForeArm  -5.82777 5.26626 3.49954
RightHand  -2.03567 5.43988 -21.9417
LeftUpLeg  1.06248 4.9028 0.793519
LeftLeg  4.99817 18.3063 -3.53579
LeftFoot  -7.98018 0.120974 -2.49246
LeftToes  1.06244e-005 4.65854e-005 -8.18505e-006
